<?xml version="1.0" encoding="UTF-8"?>
<svg id="Layer_2" data-name="Layer 2" xmlns="http://www.w3.org/2000/svg" viewBox="0 0 119.49 89.79">
  <defs>
    <style>
      .cls-1, .cls-2 {
        fill: #fff;
      }

      .cls-2 {
        font-family: Bahnschrift, Bahnschrift;
        font-size: 78.79px;
        font-variation-settings: 'wght' 400, 'wdth' 100;
      }

      .cls-3 {
        fill: #00adee;
      }
    </style>
  </defs>
  <g id="Layer_1-2" data-name="Layer 1">
    <g>
      <path class="cls-1" d="m83.97,26.23v16.16c-1.4,0-2.54,1.14-2.54,2.55v21.02l-2.16,2.17h-39.71l-2.17-2.17v-21.02c0-1.4-1.13-2.54-2.53-2.55v-16.16l7.22-7.23h34.67l7.22,7.23Zm-9.48,16.15h-30.15v18.68h30.15v-18.68Zm2.26-11.58c0-2.53-2.05-4.58-4.58-4.58s-4.58,2.05-4.58,4.58,2.05,4.58,4.58,4.58,4.58-2.05,4.58-4.58Z"/>
      <circle class="cls-3" cx="46.66" cy="30.8" r="6.96"/>
      <text class="cls-2" transform="translate(0 68.48)"><tspan x="0" y="0">{</tspan></text>
      <text class="cls-2" transform="translate(119.49 67.37) rotate(-180) scale(1 -1)"><tspan x="0" y="0">{</tspan></text>
    </g>
  </g>
</svg>